<mxfile host="app.diagrams.net" modified="2020-05-20T12:28:25.486Z" agent="5.0 (Windows NT 10.0; Win64; x64) AppleWebKit/537.36 (KHTML, like Gecko) Chrome/81.0.4044.138 Safari/537.36" etag="2IlktLWJch6fBCR-2rIG" version="13.1.1" type="github">
  <diagram name="Agent - monolith" id="Agent_-_monolith">
    <mxGraphModel dx="1483" dy="783" grid="1" gridSize="10" guides="1" tooltips="1" connect="1" arrows="1" fold="1" page="1" pageScale="1" pageWidth="827" pageHeight="1169" math="0" shadow="0">
      <root>
        <mxCell id="0" />
        <mxCell id="1" parent="0" />
        <mxCell id="hZ7H1HI3UuH6J-5RxqU9-328" style="edgeStyle=orthogonalEdgeStyle;orthogonalLoop=1;jettySize=auto;html=1;endArrow=none;endFill=0;rounded=1;startArrow=ERzeroToMany;startFill=1;" edge="1" parent="1" source="hZ7H1HI3UuH6J-5RxqU9-256" target="hZ7H1HI3UuH6J-5RxqU9-343">
          <mxGeometry relative="1" as="geometry">
            <mxPoint x="970" y="947" as="targetPoint" />
          </mxGeometry>
        </mxCell>
        <mxCell id="hZ7H1HI3UuH6J-5RxqU9-336" style="edgeStyle=orthogonalEdgeStyle;rounded=1;orthogonalLoop=1;jettySize=auto;html=1;startArrow=none;startFill=0;endArrow=ERone;endFill=0;exitX=0.5;exitY=0;exitDx=0;exitDy=0;" edge="1" parent="1" source="hZ7H1HI3UuH6J-5RxqU9-345" target="hZ7H1HI3UuH6J-5RxqU9-275">
          <mxGeometry relative="1" as="geometry">
            <Array as="points">
              <mxPoint x="880" y="810" />
              <mxPoint x="880" y="810" />
            </Array>
          </mxGeometry>
        </mxCell>
        <mxCell id="hZ7H1HI3UuH6J-5RxqU9-256" value="UserRequest" style="swimlane;fontStyle=0;childLayout=stackLayout;horizontal=1;startSize=26;fillColor=none;horizontalStack=0;resizeParent=1;resizeParentMax=0;resizeLast=0;collapsible=1;marginBottom=0;" vertex="1" parent="1">
          <mxGeometry x="660" y="858" width="190" height="164" as="geometry" />
        </mxCell>
        <mxCell id="hZ7H1HI3UuH6J-5RxqU9-257" value="- UserID: username" style="text;strokeColor=none;fillColor=none;align=left;verticalAlign=top;spacingLeft=4;spacingRight=4;overflow=hidden;rotatable=0;points=[[0,0.5],[1,0.5]];portConstraint=eastwest;" vertex="1" parent="hZ7H1HI3UuH6J-5RxqU9-256">
          <mxGeometry y="26" width="190" height="26" as="geometry" />
        </mxCell>
        <mxCell id="hZ7H1HI3UuH6J-5RxqU9-258" value="- carsToRent: Array&lt;Car&gt;" style="text;strokeColor=none;fillColor=none;align=left;verticalAlign=top;spacingLeft=4;spacingRight=4;overflow=hidden;rotatable=0;points=[[0,0.5],[1,0.5]];portConstraint=eastwest;" vertex="1" parent="hZ7H1HI3UuH6J-5RxqU9-256">
          <mxGeometry y="52" width="190" height="26" as="geometry" />
        </mxCell>
        <mxCell id="hZ7H1HI3UuH6J-5RxqU9-259" value="- status: UserRequestStatus" style="text;strokeColor=none;fillColor=none;align=left;verticalAlign=top;spacingLeft=4;spacingRight=4;overflow=hidden;rotatable=0;points=[[0,0.5],[1,0.5]];portConstraint=eastwest;" vertex="1" parent="hZ7H1HI3UuH6J-5RxqU9-256">
          <mxGeometry y="78" width="190" height="26" as="geometry" />
        </mxCell>
        <mxCell id="hZ7H1HI3UuH6J-5RxqU9-262" value="- timeAndDate: TimeAndDate" style="text;strokeColor=none;fillColor=none;align=left;verticalAlign=top;spacingLeft=4;spacingRight=4;overflow=hidden;rotatable=0;points=[[0,0.5],[1,0.5]];portConstraint=eastwest;" vertex="1" parent="hZ7H1HI3UuH6J-5RxqU9-256">
          <mxGeometry y="104" width="190" height="26" as="geometry" />
        </mxCell>
        <mxCell id="hZ7H1HI3UuH6J-5RxqU9-261" value="" style="line;strokeWidth=1;fillColor=none;align=left;verticalAlign=middle;spacingTop=-1;spacingLeft=3;spacingRight=3;rotatable=0;labelPosition=right;points=[];portConstraint=eastwest;" vertex="1" parent="hZ7H1HI3UuH6J-5RxqU9-256">
          <mxGeometry y="130" width="190" height="8" as="geometry" />
        </mxCell>
        <mxCell id="hZ7H1HI3UuH6J-5RxqU9-263" value="+ updateStatus() : void" style="text;strokeColor=none;fillColor=none;align=left;verticalAlign=top;spacingLeft=4;spacingRight=4;overflow=hidden;rotatable=0;points=[[0,0.5],[1,0.5]];portConstraint=eastwest;" vertex="1" parent="hZ7H1HI3UuH6J-5RxqU9-256">
          <mxGeometry y="138" width="190" height="26" as="geometry" />
        </mxCell>
        <mxCell id="hZ7H1HI3UuH6J-5RxqU9-348" style="edgeStyle=orthogonalEdgeStyle;rounded=1;orthogonalLoop=1;jettySize=auto;html=1;startArrow=none;startFill=0;endArrow=ERone;endFill=0;exitX=0.5;exitY=0;exitDx=0;exitDy=0;" edge="1" parent="1" source="hZ7H1HI3UuH6J-5RxqU9-347" target="hZ7H1HI3UuH6J-5RxqU9-250">
          <mxGeometry relative="1" as="geometry">
            <Array as="points">
              <mxPoint x="730" y="1150" />
            </Array>
          </mxGeometry>
        </mxCell>
        <mxCell id="hZ7H1HI3UuH6J-5RxqU9-274" value="Cart" style="swimlane;fontStyle=0;childLayout=stackLayout;horizontal=1;startSize=26;fillColor=none;horizontalStack=0;resizeParent=1;resizeParentMax=0;resizeLast=0;collapsible=1;marginBottom=0;" vertex="1" parent="1">
          <mxGeometry x="848" y="664" width="260" height="52" as="geometry" />
        </mxCell>
        <mxCell id="hZ7H1HI3UuH6J-5RxqU9-275" value="- carsFromAgency: Array&lt;UserRequest&gt;" style="text;strokeColor=none;fillColor=none;align=left;verticalAlign=top;spacingLeft=4;spacingRight=4;overflow=hidden;rotatable=0;points=[[0,0.5],[1,0.5]];portConstraint=eastwest;" vertex="1" parent="hZ7H1HI3UuH6J-5RxqU9-274">
          <mxGeometry y="26" width="260" height="26" as="geometry" />
        </mxCell>
        <mxCell id="hZ7H1HI3UuH6J-5RxqU9-320" value="UserReview" style="swimlane;fontStyle=1;align=center;verticalAlign=top;childLayout=stackLayout;horizontal=1;startSize=26;horizontalStack=0;resizeParent=1;resizeParentMax=0;resizeLast=0;collapsible=1;marginBottom=0;" vertex="1" parent="1">
          <mxGeometry x="960" y="740" width="160" height="190" as="geometry" />
        </mxCell>
        <mxCell id="hZ7H1HI3UuH6J-5RxqU9-321" value="- userReviewer : User" style="text;strokeColor=none;fillColor=none;align=left;verticalAlign=top;spacingLeft=4;spacingRight=4;overflow=hidden;rotatable=0;points=[[0,0.5],[1,0.5]];portConstraint=eastwest;" vertex="1" parent="hZ7H1HI3UuH6J-5RxqU9-320">
          <mxGeometry y="26" width="160" height="26" as="geometry" />
        </mxCell>
        <mxCell id="hZ7H1HI3UuH6J-5RxqU9-427" value="- userToReview: User" style="text;strokeColor=none;fillColor=none;align=left;verticalAlign=top;spacingLeft=4;spacingRight=4;overflow=hidden;rotatable=0;points=[[0,0.5],[1,0.5]];portConstraint=eastwest;" vertex="1" parent="hZ7H1HI3UuH6J-5RxqU9-320">
          <mxGeometry y="52" width="160" height="26" as="geometry" />
        </mxCell>
        <mxCell id="hZ7H1HI3UuH6J-5RxqU9-428" value="- comment: String" style="text;strokeColor=none;fillColor=none;align=left;verticalAlign=top;spacingLeft=4;spacingRight=4;overflow=hidden;rotatable=0;points=[[0,0.5],[1,0.5]];portConstraint=eastwest;" vertex="1" parent="hZ7H1HI3UuH6J-5RxqU9-320">
          <mxGeometry y="78" width="160" height="26" as="geometry" />
        </mxCell>
        <mxCell id="hZ7H1HI3UuH6J-5RxqU9-429" value="- rate: RatingScale" style="text;strokeColor=none;fillColor=none;align=left;verticalAlign=top;spacingLeft=4;spacingRight=4;overflow=hidden;rotatable=0;points=[[0,0.5],[1,0.5]];portConstraint=eastwest;" vertex="1" parent="hZ7H1HI3UuH6J-5RxqU9-320">
          <mxGeometry y="104" width="160" height="26" as="geometry" />
        </mxCell>
        <mxCell id="hZ7H1HI3UuH6J-5RxqU9-431" value="- subject: Advert" style="text;strokeColor=none;fillColor=none;align=left;verticalAlign=top;spacingLeft=4;spacingRight=4;overflow=hidden;rotatable=0;points=[[0,0.5],[1,0.5]];portConstraint=eastwest;" vertex="1" parent="hZ7H1HI3UuH6J-5RxqU9-320">
          <mxGeometry y="130" width="160" height="26" as="geometry" />
        </mxCell>
        <mxCell id="hZ7H1HI3UuH6J-5RxqU9-322" value="" style="line;strokeWidth=1;fillColor=none;align=left;verticalAlign=middle;spacingTop=-1;spacingLeft=3;spacingRight=3;rotatable=0;labelPosition=right;points=[];portConstraint=eastwest;" vertex="1" parent="hZ7H1HI3UuH6J-5RxqU9-320">
          <mxGeometry y="156" width="160" height="8" as="geometry" />
        </mxCell>
        <mxCell id="hZ7H1HI3UuH6J-5RxqU9-323" value="+ method(type): type" style="text;strokeColor=none;fillColor=none;align=left;verticalAlign=top;spacingLeft=4;spacingRight=4;overflow=hidden;rotatable=0;points=[[0,0.5],[1,0.5]];portConstraint=eastwest;" vertex="1" parent="hZ7H1HI3UuH6J-5RxqU9-320">
          <mxGeometry y="164" width="160" height="26" as="geometry" />
        </mxCell>
        <mxCell id="hZ7H1HI3UuH6J-5RxqU9-300" value="SearchAttributes" style="swimlane;fontStyle=1;align=center;verticalAlign=top;childLayout=stackLayout;horizontal=1;startSize=26;horizontalStack=0;resizeParent=1;resizeParentMax=0;resizeLast=0;collapsible=1;marginBottom=0;" vertex="1" parent="1">
          <mxGeometry x="400" y="570" width="240" height="346" as="geometry" />
        </mxCell>
        <mxCell id="hZ7H1HI3UuH6J-5RxqU9-301" value="- fromWhere: Array&lt; Location &gt;Â " style="text;strokeColor=none;fillColor=none;align=left;verticalAlign=top;spacingLeft=4;spacingRight=4;overflow=hidden;rotatable=0;points=[[0,0.5],[1,0.5]];portConstraint=eastwest;" vertex="1" parent="hZ7H1HI3UuH6J-5RxqU9-300">
          <mxGeometry y="26" width="240" height="26" as="geometry" />
        </mxCell>
        <mxCell id="hZ7H1HI3UuH6J-5RxqU9-310" value="- rentDate: Date" style="text;strokeColor=none;fillColor=none;align=left;verticalAlign=top;spacingLeft=4;spacingRight=4;overflow=hidden;rotatable=0;points=[[0,0.5],[1,0.5]];portConstraint=eastwest;" vertex="1" parent="hZ7H1HI3UuH6J-5RxqU9-300">
          <mxGeometry y="52" width="240" height="26" as="geometry" />
        </mxCell>
        <mxCell id="hZ7H1HI3UuH6J-5RxqU9-311" value="- returnDate: Date" style="text;strokeColor=none;fillColor=none;align=left;verticalAlign=top;spacingLeft=4;spacingRight=4;overflow=hidden;rotatable=0;points=[[0,0.5],[1,0.5]];portConstraint=eastwest;" vertex="1" parent="hZ7H1HI3UuH6J-5RxqU9-300">
          <mxGeometry y="78" width="240" height="26" as="geometry" />
        </mxCell>
        <mxCell id="hZ7H1HI3UuH6J-5RxqU9-313" value="- manufacturers: Array&lt; Manufacturer &gt;" style="text;strokeColor=none;fillColor=none;align=left;verticalAlign=top;spacingLeft=4;spacingRight=4;overflow=hidden;rotatable=0;points=[[0,0.5],[1,0.5]];portConstraint=eastwest;" vertex="1" parent="hZ7H1HI3UuH6J-5RxqU9-300">
          <mxGeometry y="104" width="240" height="26" as="geometry" />
        </mxCell>
        <mxCell id="hZ7H1HI3UuH6J-5RxqU9-314" value="- models : Array&lt; String &gt;" style="text;strokeColor=none;fillColor=none;align=left;verticalAlign=top;spacingLeft=4;spacingRight=4;overflow=hidden;rotatable=0;points=[[0,0.5],[1,0.5]];portConstraint=eastwest;" vertex="1" parent="hZ7H1HI3UuH6J-5RxqU9-300">
          <mxGeometry y="130" width="240" height="26" as="geometry" />
        </mxCell>
        <mxCell id="hZ7H1HI3UuH6J-5RxqU9-312" value="- fuelTypes: Array&lt; FuelTypes &gt;" style="text;strokeColor=none;fillColor=none;align=left;verticalAlign=top;spacingLeft=4;spacingRight=4;overflow=hidden;rotatable=0;points=[[0,0.5],[1,0.5]];portConstraint=eastwest;" vertex="1" parent="hZ7H1HI3UuH6J-5RxqU9-300">
          <mxGeometry y="156" width="240" height="26" as="geometry" />
        </mxCell>
        <mxCell id="hZ7H1HI3UuH6J-5RxqU9-315" value="- carClasses : Array&lt; String &gt;" style="text;strokeColor=none;fillColor=none;align=left;verticalAlign=top;spacingLeft=4;spacingRight=4;overflow=hidden;rotatable=0;points=[[0,0.5],[1,0.5]];portConstraint=eastwest;" vertex="1" parent="hZ7H1HI3UuH6J-5RxqU9-300">
          <mxGeometry y="182" width="240" height="26" as="geometry" />
        </mxCell>
        <mxCell id="hZ7H1HI3UuH6J-5RxqU9-316" value="- priceRange: PriceRange" style="text;strokeColor=none;fillColor=none;align=left;verticalAlign=top;spacingLeft=4;spacingRight=4;overflow=hidden;rotatable=0;points=[[0,0.5],[1,0.5]];portConstraint=eastwest;" vertex="1" parent="hZ7H1HI3UuH6J-5RxqU9-300">
          <mxGeometry y="208" width="240" height="26" as="geometry" />
        </mxCell>
        <mxCell id="hZ7H1HI3UuH6J-5RxqU9-317" value="- expectedMilage : float&#xa;" style="text;strokeColor=none;fillColor=none;align=left;verticalAlign=top;spacingLeft=4;spacingRight=4;overflow=hidden;rotatable=0;points=[[0,0.5],[1,0.5]];portConstraint=eastwest;" vertex="1" parent="hZ7H1HI3UuH6J-5RxqU9-300">
          <mxGeometry y="234" width="240" height="26" as="geometry" />
        </mxCell>
        <mxCell id="hZ7H1HI3UuH6J-5RxqU9-318" value="- hasCDWProtection : boolean" style="text;strokeColor=none;fillColor=none;align=left;verticalAlign=top;spacingLeft=4;spacingRight=4;overflow=hidden;rotatable=0;points=[[0,0.5],[1,0.5]];portConstraint=eastwest;" vertex="1" parent="hZ7H1HI3UuH6J-5RxqU9-300">
          <mxGeometry y="260" width="240" height="26" as="geometry" />
        </mxCell>
        <mxCell id="hZ7H1HI3UuH6J-5RxqU9-319" value="- numbersOfChildSeats: int" style="text;strokeColor=none;fillColor=none;align=left;verticalAlign=top;spacingLeft=4;spacingRight=4;overflow=hidden;rotatable=0;points=[[0,0.5],[1,0.5]];portConstraint=eastwest;" vertex="1" parent="hZ7H1HI3UuH6J-5RxqU9-300">
          <mxGeometry y="286" width="240" height="26" as="geometry" />
        </mxCell>
        <mxCell id="hZ7H1HI3UuH6J-5RxqU9-302" value="" style="line;strokeWidth=1;fillColor=none;align=left;verticalAlign=middle;spacingTop=-1;spacingLeft=3;spacingRight=3;rotatable=0;labelPosition=right;points=[];portConstraint=eastwest;" vertex="1" parent="hZ7H1HI3UuH6J-5RxqU9-300">
          <mxGeometry y="312" width="240" height="8" as="geometry" />
        </mxCell>
        <mxCell id="hZ7H1HI3UuH6J-5RxqU9-303" value="+ method(type): type" style="text;strokeColor=none;fillColor=none;align=left;verticalAlign=top;spacingLeft=4;spacingRight=4;overflow=hidden;rotatable=0;points=[[0,0.5],[1,0.5]];portConstraint=eastwest;" vertex="1" parent="hZ7H1HI3UuH6J-5RxqU9-300">
          <mxGeometry y="320" width="240" height="26" as="geometry" />
        </mxCell>
        <mxCell id="hZ7H1HI3UuH6J-5RxqU9-210" value="Agency" style="swimlane;fontStyle=1;align=center;verticalAlign=top;childLayout=stackLayout;horizontal=1;startSize=26;horizontalStack=0;resizeParent=1;resizeParentMax=0;resizeLast=0;collapsible=1;marginBottom=0;" vertex="1" parent="1">
          <mxGeometry x="390" y="1482" width="210" height="164" as="geometry" />
        </mxCell>
        <mxCell id="hZ7H1HI3UuH6J-5RxqU9-211" value="- PIB: String" style="text;strokeColor=none;fillColor=none;align=left;verticalAlign=top;spacingLeft=4;spacingRight=4;overflow=hidden;rotatable=0;points=[[0,0.5],[1,0.5]];portConstraint=eastwest;" vertex="1" parent="hZ7H1HI3UuH6J-5RxqU9-210">
          <mxGeometry y="26" width="210" height="26" as="geometry" />
        </mxCell>
        <mxCell id="hZ7H1HI3UuH6J-5RxqU9-225" value="- agancyDiscounts: Array&lt;Discount&gt;" style="text;strokeColor=none;fillColor=none;align=left;verticalAlign=top;spacingLeft=4;spacingRight=4;overflow=hidden;rotatable=0;points=[[0,0.5],[1,0.5]];portConstraint=eastwest;" vertex="1" parent="hZ7H1HI3UuH6J-5RxqU9-210">
          <mxGeometry y="52" width="210" height="26" as="geometry" />
        </mxCell>
        <mxCell id="hZ7H1HI3UuH6J-5RxqU9-227" value="- agancyPricelist: Array&lt;Pricelist&gt;" style="text;strokeColor=none;fillColor=none;align=left;verticalAlign=top;spacingLeft=4;spacingRight=4;overflow=hidden;rotatable=0;points=[[0,0.5],[1,0.5]];portConstraint=eastwest;" vertex="1" parent="hZ7H1HI3UuH6J-5RxqU9-210">
          <mxGeometry y="78" width="210" height="26" as="geometry" />
        </mxCell>
        <mxCell id="hZ7H1HI3UuH6J-5RxqU9-229" value="- agancyAttributes: AgentAttributes" style="text;strokeColor=none;fillColor=none;align=left;verticalAlign=top;spacingLeft=4;spacingRight=4;overflow=hidden;rotatable=0;points=[[0,0.5],[1,0.5]];portConstraint=eastwest;" vertex="1" parent="hZ7H1HI3UuH6J-5RxqU9-210">
          <mxGeometry y="104" width="210" height="26" as="geometry" />
        </mxCell>
        <mxCell id="hZ7H1HI3UuH6J-5RxqU9-212" value="" style="line;strokeWidth=1;fillColor=none;align=left;verticalAlign=middle;spacingTop=-1;spacingLeft=3;spacingRight=3;rotatable=0;labelPosition=right;points=[];portConstraint=eastwest;" vertex="1" parent="hZ7H1HI3UuH6J-5RxqU9-210">
          <mxGeometry y="130" width="210" height="8" as="geometry" />
        </mxCell>
        <mxCell id="hZ7H1HI3UuH6J-5RxqU9-213" value="+ method(type): type" style="text;strokeColor=none;fillColor=none;align=left;verticalAlign=top;spacingLeft=4;spacingRight=4;overflow=hidden;rotatable=0;points=[[0,0.5],[1,0.5]];portConstraint=eastwest;" vertex="1" parent="hZ7H1HI3UuH6J-5RxqU9-210">
          <mxGeometry y="138" width="210" height="26" as="geometry" />
        </mxCell>
        <mxCell id="hZ7H1HI3UuH6J-5RxqU9-375" style="edgeStyle=orthogonalEdgeStyle;rounded=1;orthogonalLoop=1;jettySize=auto;html=1;exitX=1;exitY=0.5;exitDx=0;exitDy=0;entryX=0.952;entryY=0.615;entryDx=0;entryDy=0;entryPerimeter=0;dashed=1;startArrow=none;startFill=0;endArrow=none;endFill=0;" edge="1" parent="hZ7H1HI3UuH6J-5RxqU9-210" source="hZ7H1HI3UuH6J-5RxqU9-225" target="hZ7H1HI3UuH6J-5RxqU9-225">
          <mxGeometry relative="1" as="geometry" />
        </mxCell>
        <mxCell id="hZ7H1HI3UuH6J-5RxqU9-402" style="edgeStyle=orthogonalEdgeStyle;rounded=1;orthogonalLoop=1;jettySize=auto;html=1;startArrow=openThin;startFill=0;endArrow=none;endFill=0;" edge="1" parent="1" source="hZ7H1HI3UuH6J-5RxqU9-240" target="hZ7H1HI3UuH6J-5RxqU9-147">
          <mxGeometry relative="1" as="geometry" />
        </mxCell>
        <mxCell id="hZ7H1HI3UuH6J-5RxqU9-240" value="FullName" style="swimlane;fontStyle=0;childLayout=stackLayout;horizontal=1;startSize=26;fillColor=none;horizontalStack=0;resizeParent=1;resizeParentMax=0;resizeLast=0;collapsible=1;marginBottom=0;" vertex="1" parent="1">
          <mxGeometry x="415" y="950" width="140" height="104" as="geometry" />
        </mxCell>
        <mxCell id="hZ7H1HI3UuH6J-5RxqU9-241" value="- name: String" style="text;strokeColor=none;fillColor=none;align=left;verticalAlign=top;spacingLeft=4;spacingRight=4;overflow=hidden;rotatable=0;points=[[0,0.5],[1,0.5]];portConstraint=eastwest;" vertex="1" parent="hZ7H1HI3UuH6J-5RxqU9-240">
          <mxGeometry y="26" width="140" height="26" as="geometry" />
        </mxCell>
        <mxCell id="hZ7H1HI3UuH6J-5RxqU9-242" value="- middleName : String" style="text;strokeColor=none;fillColor=none;align=left;verticalAlign=top;spacingLeft=4;spacingRight=4;overflow=hidden;rotatable=0;points=[[0,0.5],[1,0.5]];portConstraint=eastwest;" vertex="1" parent="hZ7H1HI3UuH6J-5RxqU9-240">
          <mxGeometry y="52" width="140" height="26" as="geometry" />
        </mxCell>
        <mxCell id="hZ7H1HI3UuH6J-5RxqU9-243" value="- lastname: String" style="text;strokeColor=none;fillColor=none;align=left;verticalAlign=top;spacingLeft=4;spacingRight=4;overflow=hidden;rotatable=0;points=[[0,0.5],[1,0.5]];portConstraint=eastwest;" vertex="1" parent="hZ7H1HI3UuH6J-5RxqU9-240">
          <mxGeometry y="78" width="140" height="26" as="geometry" />
        </mxCell>
        <mxCell id="hZ7H1HI3UuH6J-5RxqU9-184" value="Advert" style="swimlane;fontStyle=1;align=center;verticalAlign=top;childLayout=stackLayout;horizontal=1;startSize=26;horizontalStack=0;resizeParent=1;resizeParentMax=0;resizeLast=0;collapsible=1;marginBottom=0;" vertex="1" parent="1">
          <mxGeometry x="632" y="1256" width="200" height="182" as="geometry" />
        </mxCell>
        <mxCell id="hZ7H1HI3UuH6J-5RxqU9-185" value="- car: Car" style="text;strokeColor=none;fillColor=none;align=left;verticalAlign=top;spacingLeft=4;spacingRight=4;overflow=hidden;rotatable=0;points=[[0,0.5],[1,0.5]];portConstraint=eastwest;" vertex="1" parent="hZ7H1HI3UuH6J-5RxqU9-184">
          <mxGeometry y="26" width="200" height="26" as="geometry" />
        </mxCell>
        <mxCell id="hZ7H1HI3UuH6J-5RxqU9-195" value="- priceList: PriceList&#xa;" style="text;strokeColor=none;fillColor=none;align=left;verticalAlign=top;spacingLeft=4;spacingRight=4;overflow=hidden;rotatable=0;points=[[0,0.5],[1,0.5]];portConstraint=eastwest;" vertex="1" parent="hZ7H1HI3UuH6J-5RxqU9-184">
          <mxGeometry y="52" width="200" height="26" as="geometry" />
        </mxCell>
        <mxCell id="hZ7H1HI3UuH6J-5RxqU9-196" value="- status: AdStatus" style="text;strokeColor=none;fillColor=none;align=left;verticalAlign=top;spacingLeft=4;spacingRight=4;overflow=hidden;rotatable=0;points=[[0,0.5],[1,0.5]];portConstraint=eastwest;" vertex="1" parent="hZ7H1HI3UuH6J-5RxqU9-184">
          <mxGeometry y="78" width="200" height="26" as="geometry" />
        </mxCell>
        <mxCell id="hZ7H1HI3UuH6J-5RxqU9-197" value="- publishDate: TimeAndDate" style="text;strokeColor=none;fillColor=none;align=left;verticalAlign=top;spacingLeft=4;spacingRight=4;overflow=hidden;rotatable=0;points=[[0,0.5],[1,0.5]];portConstraint=eastwest;" vertex="1" parent="hZ7H1HI3UuH6J-5RxqU9-184">
          <mxGeometry y="104" width="200" height="26" as="geometry" />
        </mxCell>
        <mxCell id="hZ7H1HI3UuH6J-5RxqU9-199" value="- photos: Array&lt;Bitimage&gt;&#xa;" style="text;strokeColor=none;fillColor=none;align=left;verticalAlign=top;spacingLeft=4;spacingRight=4;overflow=hidden;rotatable=0;points=[[0,0.5],[1,0.5]];portConstraint=eastwest;" vertex="1" parent="hZ7H1HI3UuH6J-5RxqU9-184">
          <mxGeometry y="130" width="200" height="26" as="geometry" />
        </mxCell>
        <mxCell id="hZ7H1HI3UuH6J-5RxqU9-407" value="- hasDiscounts: Array&lt;Discount&gt;" style="text;strokeColor=none;fillColor=none;align=left;verticalAlign=top;spacingLeft=4;spacingRight=4;overflow=hidden;rotatable=0;points=[[0,0.5],[1,0.5]];portConstraint=eastwest;" vertex="1" parent="hZ7H1HI3UuH6J-5RxqU9-184">
          <mxGeometry y="156" width="200" height="26" as="geometry" />
        </mxCell>
        <mxCell id="hZ7H1HI3UuH6J-5RxqU9-147" value="AgentAttributes" style="swimlane;fontStyle=0;childLayout=stackLayout;horizontal=1;startSize=26;fillColor=none;horizontalStack=0;resizeParent=1;resizeParentMax=0;resizeLast=0;collapsible=1;marginBottom=0;" vertex="1" parent="1">
          <mxGeometry x="365" y="1127" width="240" height="182" as="geometry">
            <mxRectangle x="90" y="1323" width="110" height="26" as="alternateBounds" />
          </mxGeometry>
        </mxCell>
        <mxCell id="hZ7H1HI3UuH6J-5RxqU9-148" value="+ name: FullName" style="text;strokeColor=none;fillColor=none;align=left;verticalAlign=top;spacingLeft=4;spacingRight=4;overflow=hidden;rotatable=0;points=[[0,0.5],[1,0.5]];portConstraint=eastwest;" vertex="1" parent="hZ7H1HI3UuH6J-5RxqU9-147">
          <mxGeometry y="26" width="240" height="26" as="geometry" />
        </mxCell>
        <mxCell id="hZ7H1HI3UuH6J-5RxqU9-150" value="+ headquarter: Location&#xa;" style="text;strokeColor=none;fillColor=none;align=left;verticalAlign=top;spacingLeft=4;spacingRight=4;overflow=hidden;rotatable=0;points=[[0,0.5],[1,0.5]];portConstraint=eastwest;" vertex="1" parent="hZ7H1HI3UuH6J-5RxqU9-147">
          <mxGeometry y="52" width="240" height="26" as="geometry" />
        </mxCell>
        <mxCell id="hZ7H1HI3UuH6J-5RxqU9-169" value="+ id: JMBG" style="text;strokeColor=none;fillColor=none;align=left;verticalAlign=top;spacingLeft=4;spacingRight=4;overflow=hidden;rotatable=0;points=[[0,0.5],[1,0.5]];portConstraint=eastwest;" vertex="1" parent="hZ7H1HI3UuH6J-5RxqU9-147">
          <mxGeometry y="78" width="240" height="26" as="geometry" />
        </mxCell>
        <mxCell id="hZ7H1HI3UuH6J-5RxqU9-170" value="+ isMetaAgent: boolean&#xa;" style="text;strokeColor=none;fillColor=none;align=left;verticalAlign=top;spacingLeft=4;spacingRight=4;overflow=hidden;rotatable=0;points=[[0,0.5],[1,0.5]];portConstraint=eastwest;" vertex="1" parent="hZ7H1HI3UuH6J-5RxqU9-147">
          <mxGeometry y="104" width="240" height="26" as="geometry" />
        </mxCell>
        <mxCell id="hZ7H1HI3UuH6J-5RxqU9-171" value="+ agancyCars: Array&lt;Car&gt;" style="text;strokeColor=none;fillColor=none;align=left;verticalAlign=top;spacingLeft=4;spacingRight=4;overflow=hidden;rotatable=0;points=[[0,0.5],[1,0.5]];portConstraint=eastwest;" vertex="1" parent="hZ7H1HI3UuH6J-5RxqU9-147">
          <mxGeometry y="130" width="240" height="26" as="geometry" />
        </mxCell>
        <mxCell id="hZ7H1HI3UuH6J-5RxqU9-172" value="+ agencyReviews: Array&lt;UserReview&gt;" style="text;strokeColor=none;fillColor=none;align=left;verticalAlign=top;spacingLeft=4;spacingRight=4;overflow=hidden;rotatable=0;points=[[0,0.5],[1,0.5]];portConstraint=eastwest;" vertex="1" parent="hZ7H1HI3UuH6J-5RxqU9-147">
          <mxGeometry y="156" width="240" height="26" as="geometry" />
        </mxCell>
        <mxCell id="64" style="vsdxID=46;fillColor=none;gradientColor=none;strokeColor=none;spacingTop=-3;spacingBottom=-3;spacingLeft=-3;spacingRight=-3;labelBackgroundColor=none;rounded=0;html=1;whiteSpace=wrap;" parent="1" vertex="1">
          <mxGeometry x="557" y="280" width="228" height="76" as="geometry" />
        </mxCell>
        <mxCell id="65" style="vsdxID=47;fillColor=#fcc438;gradientColor=none;shape=stencil(nZBLDoMwDERP422Vxquu+dwDiUAsQoJC+uH2JLKqhooFsJux38xiAItZN5MCKebg3aDe1AYNWIKUZLXyFKICrACLznnVe/e0LfupSWRSo3ulhg/nREpIseSuZtCQzcAH3hCPwnex7T3Dfv0ufBndgFH89ujIGJ4z///vF0+8PVYr);strokeColor=#333333;spacingTop=-3;spacingBottom=-3;spacingLeft=-3;spacingRight=-3;labelBackgroundColor=none;rounded=0;html=1;whiteSpace=wrap;" parent="64" vertex="1">
          <mxGeometry width="228" height="76" as="geometry" />
        </mxCell>
        <mxCell id="66" style="vsdxID=48;fillColor=#fcc438;gradientColor=none;shape=stencil(lZAxDoMwDEVP4zWK7KFlpnAPJEJjERIU0hZuTyIPRR0idfv+frb8DdRudlgNoN5SDLP58Jgs0AMQ2VsTOWUF1AG1U4jmGcPLj1KvQyGLWsK7bNhlriFFVKZQH+JodRejF96xr/KoK3Sjblih/70li2+QiZ2TP1z7v8GzJU+j7gQ=);strokeColor=#333333;spacingTop=-3;spacingBottom=-3;spacingLeft=-3;spacingRight=-3;labelBackgroundColor=none;rounded=0;html=1;whiteSpace=wrap;" parent="64" vertex="1">
          <mxGeometry width="228" height="76" as="geometry" />
        </mxCell>
        <mxCell id="67" value="&lt;p style=&quot;align:center;margin-left:0;margin-right:0;margin-top:0px;margin-bottom:0px;text-indent:0;valign:middle;direction:ltr;&quot;&gt;&lt;font style=&quot;font-size:11px;font-family:Arial;color:#000000;direction:ltr;letter-spacing:0px;line-height:100%;opacity:1&quot;&gt;accountStatus: da li je korisnik blokiran ili aktrivan&lt;br/&gt;&lt;/font&gt;&lt;/p&gt;" style="text;vsdxID=46;fillColor=none;gradientColor=none;strokeColor=none;spacingTop=-3;spacingBottom=-3;spacingLeft=-3;spacingRight=-3;labelBackgroundColor=none;rounded=0;html=1;whiteSpace=wrap;verticalAlign=middle;align=center;;html=1;" parent="64" vertex="1">
          <mxGeometry x="3.17" y="2.98" width="222.25" height="69.85" as="geometry" />
        </mxCell>
        <mxCell id="82" style="vsdxID=60;fillColor=none;gradientColor=none;strokeColor=none;spacingTop=-3;spacingBottom=-3;spacingLeft=-3;spacingRight=-3;labelBackgroundColor=none;rounded=0;html=1;whiteSpace=wrap;" parent="1" vertex="1">
          <mxGeometry x="400" y="370" width="139" height="76" as="geometry" />
        </mxCell>
        <mxCell id="83" style="vsdxID=61;fillColor=#c7e8ac;gradientColor=none;shape=stencil(nZBLDsIwDERP4y1KYiEOUMoFOEFEDbEISZWG8jk9aQ1SQKy688y8kaUBbAZnewKjhpzimW7cZQe4BWM4OEqcywXYAjbHmOiU4jV0ontbSKNmhzrp6Ik2yqbDnp8knlqh3qwlkOYljtPH+zuX6FGrnYCeQwVqtRj96L/wYvQLLMe8iGzF3sugdf67YLFkfWxf);strokeColor=#333333;spacingTop=-3;spacingBottom=-3;spacingLeft=-3;spacingRight=-3;labelBackgroundColor=none;rounded=1;html=1;whiteSpace=wrap;" parent="82" vertex="1">
          <mxGeometry width="139" height="76" as="geometry" />
        </mxCell>
        <mxCell id="84" value="&lt;p style=&quot;align:center;margin-left:0;margin-right:0;margin-top:0px;margin-bottom:0px;text-indent:0;valign:middle;direction:ltr;&quot;&gt;&lt;font style=&quot;font-size:11px;font-family:Arial;color:#333333;direction:ltr;letter-spacing:0px;line-height:100%;opacity:1&quot;&gt;Manufacturers:Enum&lt;/font&gt;&lt;/p&gt;" style="text;vsdxID=60;fillColor=none;gradientColor=none;strokeColor=none;spacingTop=-3;spacingBottom=-3;spacingLeft=-3;spacingRight=-3;labelBackgroundColor=none;rounded=0;html=1;whiteSpace=wrap;verticalAlign=middle;align=center;;html=1;" parent="82" vertex="1">
          <mxGeometry x="5.08" y="4.24" width="129.54" height="66.68" as="geometry" />
        </mxCell>
        <mxCell id="85" style="vsdxID=62;fillColor=none;gradientColor=none;strokeColor=none;spacingTop=-3;spacingBottom=-3;spacingLeft=-3;spacingRight=-3;labelBackgroundColor=none;rounded=0;html=1;whiteSpace=wrap;" parent="1" vertex="1">
          <mxGeometry x="400" y="470" width="139" height="76" as="geometry" />
        </mxCell>
        <mxCell id="86" style="vsdxID=63;fillColor=#c7e8ac;gradientColor=none;shape=stencil(nZBLDsIwDERP4y1KYiEOUMoFOEFEDbEISZWG8jk9aQ1SQKy688y8kaUBbAZnewKjhpzimW7cZQe4BWM4OEqcywXYAjbHmOiU4jV0ontbSKNmhzrp6Ik2yqbDnp8knlqh3qwlkOYljtPH+zuX6FGrnYCeQwVqtRj96L/wYvQLLMe8iGzF3sugdf67YLFkfWxf);strokeColor=#333333;spacingTop=-3;spacingBottom=-3;spacingLeft=-3;spacingRight=-3;labelBackgroundColor=none;rounded=1;html=1;whiteSpace=wrap;" parent="85" vertex="1">
          <mxGeometry width="139" height="76" as="geometry" />
        </mxCell>
        <mxCell id="87" value="&lt;p style=&quot;align:center;margin-left:0;margin-right:0;margin-top:0px;margin-bottom:0px;text-indent:0;valign:middle;direction:ltr;&quot;&gt;&lt;font style=&quot;font-size:11px;font-family:Arial;color:#333333;direction:ltr;letter-spacing:0px;line-height:100%;opacity:1&quot;&gt;FuelTypes:Enum&lt;/font&gt;&lt;/p&gt;" style="text;vsdxID=62;fillColor=none;gradientColor=none;strokeColor=none;spacingTop=-3;spacingBottom=-3;spacingLeft=-3;spacingRight=-3;labelBackgroundColor=none;rounded=0;html=1;whiteSpace=wrap;verticalAlign=middle;align=center;;html=1;" parent="85" vertex="1">
          <mxGeometry x="5.08" y="4.24" width="129.54" height="66.68" as="geometry" />
        </mxCell>
        <mxCell id="88" style="vsdxID=64;fillColor=none;gradientColor=none;strokeColor=none;spacingTop=-3;spacingBottom=-3;spacingLeft=-3;spacingRight=-3;labelBackgroundColor=none;rounded=0;html=1;whiteSpace=wrap;" parent="1" vertex="1">
          <mxGeometry x="400" y="280" width="139" height="76" as="geometry" />
        </mxCell>
        <mxCell id="89" style="vsdxID=65;fillColor=#83bbe5;gradientColor=none;shape=stencil(nZBLDsIwDERP4y1KYiEOUMoFOEFEDbEISZWG8jk9aQ1SQKy688y8kaUBbAZnewKjhpzimW7cZQe4BWM4OEqcywXYAjbHmOiU4jV0ontbSKNmhzrp6Ik2yqbDnp8knlqh3qwlkOYljtPH+zuX6FGrnYCeQwVqtRj96L/wYvQLLMe8iGzF3sugdf67YLFkfWxf);strokeColor=#333333;spacingTop=-3;spacingBottom=-3;spacingLeft=-3;spacingRight=-3;labelBackgroundColor=none;rounded=1;html=1;whiteSpace=wrap;" parent="88" vertex="1">
          <mxGeometry width="139" height="76" as="geometry" />
        </mxCell>
        <mxCell id="90" value="&lt;p style=&quot;align:center;margin-left:0;margin-right:0;margin-top:0px;margin-bottom:0px;text-indent:0;valign:middle;direction:ltr;&quot;&gt;&lt;font style=&quot;font-size:11px;font-family:Arial;color:#333333;direction:ltr;letter-spacing:0px;line-height:100%;opacity:1&quot;&gt;PriceRange:UtilClass&lt;/font&gt;&lt;/p&gt;" style="text;vsdxID=64;fillColor=none;gradientColor=none;strokeColor=none;spacingTop=-3;spacingBottom=-3;spacingLeft=-3;spacingRight=-3;labelBackgroundColor=none;rounded=0;html=1;whiteSpace=wrap;verticalAlign=middle;align=center;;html=1;" parent="88" vertex="1">
          <mxGeometry x="5.08" y="4.24" width="129.54" height="66.68" as="geometry" />
        </mxCell>
        <mxCell id="100" style="vsdxID=73;fillColor=none;gradientColor=none;strokeColor=none;spacingTop=-3;spacingBottom=-3;spacingLeft=-3;spacingRight=-3;labelBackgroundColor=none;rounded=0;html=1;whiteSpace=wrap;" parent="1" vertex="1">
          <mxGeometry x="563" y="370" width="215" height="76" as="geometry" />
        </mxCell>
        <mxCell id="101" style="vsdxID=74;fillColor=#ffdf71;gradientColor=none;shape=stencil(UzV2Ls5ILEhVNTIoLinKz04tz0wpyVA1dlE1MsrMy0gtyiwBslSNXVWNndPyi1LTi/JL81Ig/IJEkEoQKze/DGRCBUSfAUiHkUElMs8NojAnMw9JoaWRnqUJsYoNDVDNJUUtjI9VMdlKURQCGYjwSMvMyYEEJ7I8evgBhSBhb+wKAA==);strokeColor=#333333;spacingTop=-3;spacingBottom=-3;spacingLeft=-3;spacingRight=-3;labelBackgroundColor=none;rounded=0;html=1;whiteSpace=wrap;" parent="100" vertex="1">
          <mxGeometry width="215" height="76" as="geometry" />
        </mxCell>
        <mxCell id="102" style="vsdxID=75;fillColor=#ffdf71;gradientColor=none;shape=stencil(UzV2Ls5ILEhVNTIoLinKz04tz0wpyVA1dlE1MsrMy0gtyiwBslSNXVWNndPyi1LTi/JL81Ig/IJEkEoQKze/DGRCBUSfpZGepQlIl5FBJUTEQM/CGCzgBlGfk5mHV72RAR7VlnrmhnhUk+oWIAPhkbTMnBxIOCDLo3scKAQJNGNXAA==);strokeColor=#333333;spacingTop=-3;spacingBottom=-3;spacingLeft=-3;spacingRight=-3;labelBackgroundColor=none;rounded=0;html=1;whiteSpace=wrap;" parent="100" vertex="1">
          <mxGeometry width="215" height="76" as="geometry" />
        </mxCell>
        <mxCell id="103" value="&lt;p style=&quot;align:center;margin-left:0;margin-right:0;margin-top:0px;margin-bottom:0px;text-indent:0;valign:middle;direction:ltr;&quot;&gt;&lt;font style=&quot;font-size:11px;font-family:Arial;color:#333333;direction:ltr;letter-spacing:0px;line-height:100%;opacity:1&quot;&gt;Metaagent ~ admin agent koji dozvoljava registraciju drugih agenata&lt;br/&gt;&lt;/font&gt;&lt;/p&gt;" style="text;vsdxID=73;fillColor=none;gradientColor=none;strokeColor=none;spacingTop=-3;spacingBottom=-3;spacingLeft=-3;spacingRight=-3;labelBackgroundColor=none;rounded=0;html=1;whiteSpace=wrap;verticalAlign=middle;align=center;;html=1;" parent="100" vertex="1">
          <mxGeometry x="3.17" y="2.98" width="209.55" height="69.85" as="geometry" />
        </mxCell>
        <mxCell id="113" style="vsdxID=84;fillColor=none;gradientColor=none;strokeColor=none;spacingTop=-3;spacingBottom=-3;spacingLeft=-3;spacingRight=-3;labelBackgroundColor=none;rounded=0;html=1;whiteSpace=wrap;" parent="1" vertex="1">
          <mxGeometry x="563" y="470" width="355" height="60" as="geometry" />
        </mxCell>
        <mxCell id="114" style="vsdxID=85;fillColor=#ffdf71;gradientColor=none;shape=stencil(UzV2Ls5ILEhVNTIoLinKz04tz0wpyVA1dlE1MsrMy0gtyiwBslSNXVWNndPyi1LTi/JL81Ig/IJEkEoQKze/DGRCBUSfAUiHkUElMs8NojAnMw9JoaWZnqk5sYoNDVDNJUUtjI9VMdlKURQCGYjwSMvMyYEEJ7I8evgBhSBhb+wKAA==);strokeColor=#333333;spacingTop=-3;spacingBottom=-3;spacingLeft=-3;spacingRight=-3;labelBackgroundColor=none;rounded=0;html=1;whiteSpace=wrap;" parent="113" vertex="1">
          <mxGeometry width="355" height="60" as="geometry" />
        </mxCell>
        <mxCell id="115" style="vsdxID=86;fillColor=#ffdf71;gradientColor=none;shape=stencil(UzV2Ls5ILEhVNTIoLinKz04tz0wpyVA1dlE1MsrMy0gtyiwBslSNXVWNndPyi1LTi/JL81Ig/IJEkEoQKze/DGRCBUSfpZmeqTlIl5FBJUTEUM/AGCzgBlGfk5mHV72RAR7VlnoWRnhUk+oWIAPhkbTMnBxIOCDLo3scKAQJNGNXAA==);strokeColor=#333333;spacingTop=-3;spacingBottom=-3;spacingLeft=-3;spacingRight=-3;labelBackgroundColor=none;rounded=0;html=1;whiteSpace=wrap;" parent="113" vertex="1">
          <mxGeometry width="355" height="60" as="geometry" />
        </mxCell>
        <mxCell id="116" value="&lt;p style=&quot;align:center;margin-left:0;margin-right:0;margin-top:0px;margin-bottom:0px;text-indent:0;valign:middle;direction:ltr;&quot;&gt;&lt;font style=&quot;font-size:11px;font-family:Arial;color:#333333;direction:ltr;letter-spacing:0px;line-height:100%;opacity:1&quot;&gt;userRequestStatus = { PENDING, RESERVED, PAID, CENCEL }&lt;br/&gt;&lt;/font&gt;&lt;/p&gt;" style="text;vsdxID=84;fillColor=none;gradientColor=none;strokeColor=none;spacingTop=-3;spacingBottom=-3;spacingLeft=-3;spacingRight=-3;labelBackgroundColor=none;rounded=0;html=1;whiteSpace=wrap;verticalAlign=middle;align=center;;html=1;" parent="113" vertex="1">
          <mxGeometry x="3.17" y="2.22" width="349.25" height="54.61" as="geometry" />
        </mxCell>
        <mxCell id="hZ7H1HI3UuH6J-5RxqU9-368" style="edgeStyle=orthogonalEdgeStyle;rounded=1;orthogonalLoop=1;jettySize=auto;html=1;startArrow=none;startFill=0;endArrow=ERone;endFill=0;exitX=0.5;exitY=0;exitDx=0;exitDy=0;" edge="1" parent="1" source="hZ7H1HI3UuH6J-5RxqU9-367" target="hZ7H1HI3UuH6J-5RxqU9-210">
          <mxGeometry relative="1" as="geometry" />
        </mxCell>
        <mxCell id="hZ7H1HI3UuH6J-5RxqU9-342" style="edgeStyle=orthogonalEdgeStyle;rounded=1;orthogonalLoop=1;jettySize=auto;html=1;entryX=0.003;entryY=0.13;entryDx=0;entryDy=0;entryPerimeter=0;dashed=1;startArrow=none;startFill=0;endArrow=openThin;endFill=0;" edge="1" parent="1" source="hZ7H1HI3UuH6J-5RxqU9-339" target="hZ7H1HI3UuH6J-5RxqU9-259">
          <mxGeometry relative="1" as="geometry" />
        </mxCell>
        <mxCell id="hZ7H1HI3UuH6J-5RxqU9-372" style="edgeStyle=orthogonalEdgeStyle;rounded=1;orthogonalLoop=1;jettySize=auto;html=1;entryX=0;entryY=0.25;entryDx=0;entryDy=0;startArrow=none;startFill=0;endArrow=none;endFill=0;dashed=1;" edge="1" parent="1" source="hZ7H1HI3UuH6J-5RxqU9-339" target="hZ7H1HI3UuH6J-5RxqU9-250">
          <mxGeometry relative="1" as="geometry">
            <Array as="points">
              <mxPoint x="612" y="1096" />
            </Array>
          </mxGeometry>
        </mxCell>
        <mxCell id="hZ7H1HI3UuH6J-5RxqU9-339" value="Instances" style="text;html=1;strokeColor=none;fillColor=none;align=center;verticalAlign=middle;whiteSpace=wrap;rounded=0;" vertex="1" parent="1">
          <mxGeometry x="592" y="1037" width="40" height="20" as="geometry" />
        </mxCell>
        <mxCell id="hZ7H1HI3UuH6J-5RxqU9-414" style="edgeStyle=orthogonalEdgeStyle;rounded=1;orthogonalLoop=1;jettySize=auto;html=1;startArrow=none;startFill=0;endArrow=none;endFill=0;" edge="1" parent="1" source="hZ7H1HI3UuH6J-5RxqU9-343" target="hZ7H1HI3UuH6J-5RxqU9-274">
          <mxGeometry relative="1" as="geometry">
            <Array as="points">
              <mxPoint x="830" y="700" />
              <mxPoint x="830" y="700" />
            </Array>
          </mxGeometry>
        </mxCell>
        <mxCell id="hZ7H1HI3UuH6J-5RxqU9-343" value="Contains" style="text;html=1;strokeColor=none;fillColor=none;align=center;verticalAlign=middle;whiteSpace=wrap;rounded=0;" vertex="1" parent="1">
          <mxGeometry x="715" y="690" width="80" height="20" as="geometry" />
        </mxCell>
        <mxCell id="hZ7H1HI3UuH6J-5RxqU9-346" style="edgeStyle=orthogonalEdgeStyle;rounded=1;orthogonalLoop=1;jettySize=auto;html=1;startArrow=none;startFill=0;endArrow=ERone;endFill=0;" edge="1" parent="1" source="hZ7H1HI3UuH6J-5RxqU9-345" target="hZ7H1HI3UuH6J-5RxqU9-250">
          <mxGeometry relative="1" as="geometry" />
        </mxCell>
        <mxCell id="hZ7H1HI3UuH6J-5RxqU9-345" value="Owns" style="text;html=1;strokeColor=none;fillColor=none;align=center;verticalAlign=middle;whiteSpace=wrap;rounded=0;" vertex="1" parent="1">
          <mxGeometry x="860" y="1017" width="40" height="20" as="geometry" />
        </mxCell>
        <mxCell id="hZ7H1HI3UuH6J-5RxqU9-412" style="edgeStyle=orthogonalEdgeStyle;rounded=1;orthogonalLoop=1;jettySize=auto;html=1;entryX=0;entryY=0.5;entryDx=0;entryDy=0;startArrow=none;startFill=0;endArrow=ERzeroToMany;endFill=1;" edge="1" parent="1" source="hZ7H1HI3UuH6J-5RxqU9-184" target="hZ7H1HI3UuH6J-5RxqU9-233">
          <mxGeometry relative="1" as="geometry" />
        </mxCell>
        <mxCell id="hZ7H1HI3UuH6J-5RxqU9-349" style="edgeStyle=orthogonalEdgeStyle;rounded=1;orthogonalLoop=1;jettySize=auto;html=1;startArrow=none;startFill=0;endArrow=ERzeroToMany;endFill=1;" edge="1" parent="1" source="hZ7H1HI3UuH6J-5RxqU9-347" target="hZ7H1HI3UuH6J-5RxqU9-184">
          <mxGeometry relative="1" as="geometry" />
        </mxCell>
        <mxCell id="hZ7H1HI3UuH6J-5RxqU9-347" value="Posts" style="text;html=1;strokeColor=none;fillColor=none;align=center;verticalAlign=middle;whiteSpace=wrap;rounded=0;" vertex="1" parent="1">
          <mxGeometry x="710" y="1208" width="40" height="20" as="geometry" />
        </mxCell>
        <mxCell id="hZ7H1HI3UuH6J-5RxqU9-354" style="edgeStyle=orthogonalEdgeStyle;rounded=1;orthogonalLoop=1;jettySize=auto;html=1;startArrow=none;startFill=0;endArrow=ERzeroToOne;endFill=1;dashed=1;" edge="1" parent="1" source="hZ7H1HI3UuH6J-5RxqU9-353" target="hZ7H1HI3UuH6J-5RxqU9-185">
          <mxGeometry relative="1" as="geometry" />
        </mxCell>
        <mxCell id="hZ7H1HI3UuH6J-5RxqU9-355" style="edgeStyle=orthogonalEdgeStyle;rounded=1;orthogonalLoop=1;jettySize=auto;html=1;startArrow=none;startFill=0;endArrow=ERone;endFill=0;dashed=1;entryX=0.5;entryY=0;entryDx=0;entryDy=0;" edge="1" parent="1" source="hZ7H1HI3UuH6J-5RxqU9-353" target="hZ7H1HI3UuH6J-5RxqU9-278">
          <mxGeometry relative="1" as="geometry" />
        </mxCell>
        <mxCell id="hZ7H1HI3UuH6J-5RxqU9-353" value="References" style="text;html=1;strokeColor=none;fillColor=none;align=center;verticalAlign=middle;whiteSpace=wrap;rounded=0;" vertex="1" parent="1">
          <mxGeometry x="890" y="1400" width="90" height="20" as="geometry" />
        </mxCell>
        <mxCell id="hZ7H1HI3UuH6J-5RxqU9-235" value="Massage" style="swimlane;fontStyle=1;align=center;verticalAlign=top;childLayout=stackLayout;horizontal=1;startSize=26;horizontalStack=0;resizeParent=1;resizeParentMax=0;resizeLast=0;collapsible=1;marginBottom=0;" vertex="1" parent="1">
          <mxGeometry x="990" y="1220" width="160" height="230" as="geometry" />
        </mxCell>
        <mxCell id="hZ7H1HI3UuH6J-5RxqU9-236" value="- sender: FullName" style="text;strokeColor=none;fillColor=none;align=left;verticalAlign=top;spacingLeft=4;spacingRight=4;overflow=hidden;rotatable=0;points=[[0,0.5],[1,0.5]];portConstraint=eastwest;" vertex="1" parent="hZ7H1HI3UuH6J-5RxqU9-235">
          <mxGeometry y="26" width="160" height="24" as="geometry" />
        </mxCell>
        <mxCell id="hZ7H1HI3UuH6J-5RxqU9-239" value="- recipient: FullName" style="text;strokeColor=none;fillColor=none;align=left;verticalAlign=top;spacingLeft=4;spacingRight=4;overflow=hidden;rotatable=0;points=[[0,0.5],[1,0.5]];portConstraint=eastwest;" vertex="1" parent="hZ7H1HI3UuH6J-5RxqU9-235">
          <mxGeometry y="50" width="160" height="24" as="geometry" />
        </mxCell>
        <mxCell id="hZ7H1HI3UuH6J-5RxqU9-244" value="- content: String" style="text;strokeColor=none;fillColor=none;align=left;verticalAlign=top;spacingLeft=4;spacingRight=4;overflow=hidden;rotatable=0;points=[[0,0.5],[1,0.5]];portConstraint=eastwest;" vertex="1" parent="hZ7H1HI3UuH6J-5RxqU9-235">
          <mxGeometry y="74" width="160" height="24" as="geometry" />
        </mxCell>
        <mxCell id="hZ7H1HI3UuH6J-5RxqU9-245" value="- sendDate: TimeAndDate" style="text;strokeColor=none;fillColor=none;align=left;verticalAlign=top;spacingLeft=4;spacingRight=4;overflow=hidden;rotatable=0;points=[[0,0.5],[1,0.5]];portConstraint=eastwest;" vertex="1" parent="hZ7H1HI3UuH6J-5RxqU9-235">
          <mxGeometry y="98" width="160" height="24" as="geometry" />
        </mxCell>
        <mxCell id="hZ7H1HI3UuH6J-5RxqU9-246" value="- status: MessageStatus" style="text;strokeColor=none;fillColor=none;align=left;verticalAlign=top;spacingLeft=4;spacingRight=4;overflow=hidden;rotatable=0;points=[[0,0.5],[1,0.5]];portConstraint=eastwest;" vertex="1" parent="hZ7H1HI3UuH6J-5RxqU9-235">
          <mxGeometry y="122" width="160" height="24" as="geometry" />
        </mxCell>
        <mxCell id="hZ7H1HI3UuH6J-5RxqU9-247" value="- isRead: boolean" style="text;strokeColor=none;fillColor=none;align=left;verticalAlign=top;spacingLeft=4;spacingRight=4;overflow=hidden;rotatable=0;points=[[0,0.5],[1,0.5]];portConstraint=eastwest;" vertex="1" parent="hZ7H1HI3UuH6J-5RxqU9-235">
          <mxGeometry y="146" width="160" height="24" as="geometry" />
        </mxCell>
        <mxCell id="hZ7H1HI3UuH6J-5RxqU9-237" value="" style="line;strokeWidth=1;fillColor=none;align=left;verticalAlign=middle;spacingTop=-1;spacingLeft=3;spacingRight=3;rotatable=0;labelPosition=right;points=[];portConstraint=eastwest;" vertex="1" parent="hZ7H1HI3UuH6J-5RxqU9-235">
          <mxGeometry y="170" width="160" height="8" as="geometry" />
        </mxCell>
        <mxCell id="hZ7H1HI3UuH6J-5RxqU9-238" value="+ getUserInbox( user)" style="text;strokeColor=none;fillColor=none;align=left;verticalAlign=top;spacingLeft=4;spacingRight=4;overflow=hidden;rotatable=0;points=[[0,0.5],[1,0.5]];portConstraint=eastwest;" vertex="1" parent="hZ7H1HI3UuH6J-5RxqU9-235">
          <mxGeometry y="178" width="160" height="26" as="geometry" />
        </mxCell>
        <mxCell id="hZ7H1HI3UuH6J-5RxqU9-249" value="+ getUserSent( user)" style="text;strokeColor=none;fillColor=none;align=left;verticalAlign=top;spacingLeft=4;spacingRight=4;overflow=hidden;rotatable=0;points=[[0,0.5],[1,0.5]];portConstraint=eastwest;" vertex="1" parent="hZ7H1HI3UuH6J-5RxqU9-235">
          <mxGeometry y="204" width="160" height="26" as="geometry" />
        </mxCell>
        <mxCell id="hZ7H1HI3UuH6J-5RxqU9-363" style="edgeStyle=orthogonalEdgeStyle;rounded=1;orthogonalLoop=1;jettySize=auto;html=1;startArrow=none;startFill=0;endArrow=ERone;endFill=0;" edge="1" parent="1" source="hZ7H1HI3UuH6J-5RxqU9-362" target="hZ7H1HI3UuH6J-5RxqU9-251">
          <mxGeometry relative="1" as="geometry">
            <Array as="points">
              <mxPoint x="1070" y="1107" />
            </Array>
          </mxGeometry>
        </mxCell>
        <mxCell id="hZ7H1HI3UuH6J-5RxqU9-364" style="edgeStyle=orthogonalEdgeStyle;rounded=1;orthogonalLoop=1;jettySize=auto;html=1;startArrow=none;startFill=0;endArrow=ERzeroToOne;endFill=1;" edge="1" parent="1" source="hZ7H1HI3UuH6J-5RxqU9-362" target="hZ7H1HI3UuH6J-5RxqU9-235">
          <mxGeometry relative="1" as="geometry" />
        </mxCell>
        <mxCell id="hZ7H1HI3UuH6J-5RxqU9-362" value="Has" style="text;html=1;strokeColor=none;fillColor=none;align=center;verticalAlign=middle;whiteSpace=wrap;rounded=0;" vertex="1" parent="1">
          <mxGeometry x="1050" y="1150" width="40" height="19" as="geometry" />
        </mxCell>
        <mxCell id="hZ7H1HI3UuH6J-5RxqU9-250" value="UserAccount" style="swimlane;fontStyle=1;align=center;verticalAlign=top;childLayout=stackLayout;horizontal=1;startSize=26;horizontalStack=0;resizeParent=1;resizeParentMax=0;resizeLast=0;collapsible=1;marginBottom=0;" vertex="1" parent="1">
          <mxGeometry x="785" y="1068" width="190" height="112" as="geometry" />
        </mxCell>
        <mxCell id="hZ7H1HI3UuH6J-5RxqU9-251" value="- username: String" style="text;strokeColor=none;fillColor=none;align=left;verticalAlign=top;spacingLeft=4;spacingRight=4;overflow=hidden;rotatable=0;points=[[0,0.5],[1,0.5]];portConstraint=eastwest;" vertex="1" parent="hZ7H1HI3UuH6J-5RxqU9-250">
          <mxGeometry y="26" width="190" height="26" as="geometry" />
        </mxCell>
        <mxCell id="hZ7H1HI3UuH6J-5RxqU9-254" value="- password: String" style="text;strokeColor=none;fillColor=none;align=left;verticalAlign=top;spacingLeft=4;spacingRight=4;overflow=hidden;rotatable=0;points=[[0,0.5],[1,0.5]];portConstraint=eastwest;" vertex="1" parent="hZ7H1HI3UuH6J-5RxqU9-250">
          <mxGeometry y="52" width="190" height="26" as="geometry" />
        </mxCell>
        <mxCell id="hZ7H1HI3UuH6J-5RxqU9-255" value="- status: AccountStatus" style="text;strokeColor=none;fillColor=none;align=left;verticalAlign=top;spacingLeft=4;spacingRight=4;overflow=hidden;rotatable=0;points=[[0,0.5],[1,0.5]];portConstraint=eastwest;" vertex="1" parent="hZ7H1HI3UuH6J-5RxqU9-250">
          <mxGeometry y="78" width="190" height="26" as="geometry" />
        </mxCell>
        <mxCell id="hZ7H1HI3UuH6J-5RxqU9-252" value="" style="line;strokeWidth=1;fillColor=none;align=left;verticalAlign=middle;spacingTop=-1;spacingLeft=3;spacingRight=3;rotatable=0;labelPosition=right;points=[];portConstraint=eastwest;" vertex="1" parent="hZ7H1HI3UuH6J-5RxqU9-250">
          <mxGeometry y="104" width="190" height="8" as="geometry" />
        </mxCell>
        <mxCell id="hZ7H1HI3UuH6J-5RxqU9-370" style="edgeStyle=orthogonalEdgeStyle;rounded=1;orthogonalLoop=1;jettySize=auto;html=1;startArrow=none;startFill=0;endArrow=ERzeroToMany;endFill=1;" edge="1" parent="1" source="hZ7H1HI3UuH6J-5RxqU9-367" target="hZ7H1HI3UuH6J-5RxqU9-204">
          <mxGeometry relative="1" as="geometry">
            <mxPoint x="465" y="1790" as="targetPoint" />
          </mxGeometry>
        </mxCell>
        <mxCell id="hZ7H1HI3UuH6J-5RxqU9-367" value="Defines and contains" style="text;html=1;strokeColor=none;fillColor=none;align=center;verticalAlign=middle;whiteSpace=wrap;rounded=0;" vertex="1" parent="1">
          <mxGeometry x="427" y="1733" width="136" height="20" as="geometry" />
        </mxCell>
        <mxCell id="hZ7H1HI3UuH6J-5RxqU9-376" style="edgeStyle=orthogonalEdgeStyle;rounded=1;orthogonalLoop=1;jettySize=auto;html=1;entryX=0;entryY=0.5;entryDx=0;entryDy=0;dashed=1;startArrow=none;startFill=0;endArrow=none;endFill=0;exitX=1;exitY=0.5;exitDx=0;exitDy=0;" edge="1" parent="1" source="hZ7H1HI3UuH6J-5RxqU9-229" target="hZ7H1HI3UuH6J-5RxqU9-374">
          <mxGeometry relative="1" as="geometry">
            <Array as="points">
              <mxPoint x="600" y="1596" />
            </Array>
          </mxGeometry>
        </mxCell>
        <mxCell id="hZ7H1HI3UuH6J-5RxqU9-377" style="edgeStyle=orthogonalEdgeStyle;rounded=1;orthogonalLoop=1;jettySize=auto;html=1;dashed=1;startArrow=classic;startFill=1;endArrow=none;endFill=0;entryX=1;entryY=0.5;entryDx=0;entryDy=0;" edge="1" parent="1" source="hZ7H1HI3UuH6J-5RxqU9-231" target="hZ7H1HI3UuH6J-5RxqU9-374">
          <mxGeometry relative="1" as="geometry" />
        </mxCell>
        <mxCell id="hZ7H1HI3UuH6J-5RxqU9-374" value="Defines and contains" style="text;html=1;strokeColor=none;fillColor=none;align=center;verticalAlign=middle;whiteSpace=wrap;rounded=0;" vertex="1" parent="1">
          <mxGeometry x="672" y="1586" width="120" height="20" as="geometry" />
        </mxCell>
        <mxCell id="hZ7H1HI3UuH6J-5RxqU9-381" style="edgeStyle=orthogonalEdgeStyle;rounded=1;orthogonalLoop=1;jettySize=auto;html=1;entryX=0.5;entryY=0;entryDx=0;entryDy=0;startArrow=none;startFill=0;endArrow=none;endFill=0;" edge="1" parent="1" source="hZ7H1HI3UuH6J-5RxqU9-380" target="hZ7H1HI3UuH6J-5RxqU9-210">
          <mxGeometry relative="1" as="geometry" />
        </mxCell>
        <mxCell id="hZ7H1HI3UuH6J-5RxqU9-382" style="edgeStyle=orthogonalEdgeStyle;rounded=1;orthogonalLoop=1;jettySize=auto;html=1;entryX=0.547;entryY=1.054;entryDx=0;entryDy=0;entryPerimeter=0;startArrow=none;startFill=0;endArrow=classic;endFill=1;" edge="1" parent="1" source="hZ7H1HI3UuH6J-5RxqU9-380" target="hZ7H1HI3UuH6J-5RxqU9-172">
          <mxGeometry relative="1" as="geometry">
            <Array as="points">
              <mxPoint x="496" y="1400" />
            </Array>
          </mxGeometry>
        </mxCell>
        <mxCell id="hZ7H1HI3UuH6J-5RxqU9-380" value="Contains" style="text;html=1;strokeColor=none;fillColor=none;align=center;verticalAlign=middle;whiteSpace=wrap;rounded=0;" vertex="1" parent="1">
          <mxGeometry x="460" y="1420" width="70" height="20" as="geometry" />
        </mxCell>
        <mxCell id="hZ7H1HI3UuH6J-5RxqU9-204" value="Pricelist" style="swimlane;fontStyle=0;childLayout=stackLayout;horizontal=1;startSize=26;fillColor=none;horizontalStack=0;resizeParent=1;resizeParentMax=0;resizeLast=0;collapsible=1;marginBottom=0;" vertex="1" parent="1">
          <mxGeometry x="395" y="1810" width="200" height="190" as="geometry" />
        </mxCell>
        <mxCell id="hZ7H1HI3UuH6J-5RxqU9-205" value="- CDWProtection: int" style="text;strokeColor=none;fillColor=none;align=left;verticalAlign=top;spacingLeft=4;spacingRight=4;overflow=hidden;rotatable=0;points=[[0,0.5],[1,0.5]];portConstraint=eastwest;" vertex="1" parent="hZ7H1HI3UuH6J-5RxqU9-204">
          <mxGeometry y="26" width="200" height="26" as="geometry" />
        </mxCell>
        <mxCell id="hZ7H1HI3UuH6J-5RxqU9-206" value="- Startprice : double" style="text;strokeColor=none;fillColor=none;align=left;verticalAlign=top;spacingLeft=4;spacingRight=4;overflow=hidden;rotatable=0;points=[[0,0.5],[1,0.5]];portConstraint=eastwest;" vertex="1" parent="hZ7H1HI3UuH6J-5RxqU9-204">
          <mxGeometry y="52" width="200" height="26" as="geometry" />
        </mxCell>
        <mxCell id="hZ7H1HI3UuH6J-5RxqU9-207" value="- MaxDaysForFullPrice :int" style="text;strokeColor=none;fillColor=none;align=left;verticalAlign=top;spacingLeft=4;spacingRight=4;overflow=hidden;rotatable=0;points=[[0,0.5],[1,0.5]];portConstraint=eastwest;" vertex="1" parent="hZ7H1HI3UuH6J-5RxqU9-204">
          <mxGeometry y="78" width="200" height="26" as="geometry" />
        </mxCell>
        <mxCell id="hZ7H1HI3UuH6J-5RxqU9-208" value="- MinDaysForDiscounts : int" style="text;strokeColor=none;fillColor=none;align=left;verticalAlign=top;spacingLeft=4;spacingRight=4;overflow=hidden;rotatable=0;points=[[0,0.5],[1,0.5]];portConstraint=eastwest;" vertex="1" parent="hZ7H1HI3UuH6J-5RxqU9-204">
          <mxGeometry y="104" width="200" height="26" as="geometry" />
        </mxCell>
        <mxCell id="hZ7H1HI3UuH6J-5RxqU9-209" value="- AdditionalDiscounts : Discount" style="text;strokeColor=none;fillColor=none;align=left;verticalAlign=top;spacingLeft=4;spacingRight=4;overflow=hidden;rotatable=0;points=[[0,0.5],[1,0.5]];portConstraint=eastwest;" vertex="1" parent="hZ7H1HI3UuH6J-5RxqU9-204">
          <mxGeometry y="130" width="200" height="26" as="geometry" />
        </mxCell>
        <mxCell id="hZ7H1HI3UuH6J-5RxqU9-214" value="" style="line;strokeWidth=1;fillColor=none;align=left;verticalAlign=middle;spacingTop=-1;spacingLeft=3;spacingRight=3;rotatable=0;labelPosition=right;points=[];portConstraint=eastwest;" vertex="1" parent="hZ7H1HI3UuH6J-5RxqU9-204">
          <mxGeometry y="156" width="200" height="8" as="geometry" />
        </mxCell>
        <mxCell id="hZ7H1HI3UuH6J-5RxqU9-224" value="+ PrintPriceList() : void" style="text;strokeColor=none;fillColor=none;align=left;verticalAlign=top;spacingLeft=4;spacingRight=4;overflow=hidden;rotatable=0;points=[[0,0.5],[1,0.5]];portConstraint=eastwest;" vertex="1" parent="hZ7H1HI3UuH6J-5RxqU9-204">
          <mxGeometry y="164" width="200" height="26" as="geometry" />
        </mxCell>
        <mxCell id="hZ7H1HI3UuH6J-5RxqU9-399" style="edgeStyle=orthogonalEdgeStyle;rounded=1;orthogonalLoop=1;jettySize=auto;html=1;startArrow=none;startFill=0;endArrow=none;endFill=0;" edge="1" parent="1" source="hZ7H1HI3UuH6J-5RxqU9-396" target="hZ7H1HI3UuH6J-5RxqU9-213">
          <mxGeometry relative="1" as="geometry" />
        </mxCell>
        <mxCell id="hZ7H1HI3UuH6J-5RxqU9-396" value="Uses" style="text;html=1;strokeColor=none;fillColor=none;align=center;verticalAlign=middle;whiteSpace=wrap;rounded=0;" vertex="1" parent="1">
          <mxGeometry x="660" y="1623" width="40" height="20" as="geometry" />
        </mxCell>
        <mxCell id="hZ7H1HI3UuH6J-5RxqU9-401" style="edgeStyle=orthogonalEdgeStyle;rounded=1;orthogonalLoop=1;jettySize=auto;html=1;startArrow=openThin;startFill=0;endArrow=none;endFill=0;exitX=0.5;exitY=0;exitDx=0;exitDy=0;" edge="1" parent="1" source="hZ7H1HI3UuH6J-5RxqU9-178" target="hZ7H1HI3UuH6J-5RxqU9-396">
          <mxGeometry relative="1" as="geometry">
            <Array as="points">
              <mxPoint x="751" y="1633" />
            </Array>
          </mxGeometry>
        </mxCell>
        <mxCell id="hZ7H1HI3UuH6J-5RxqU9-404" style="edgeStyle=orthogonalEdgeStyle;rounded=1;orthogonalLoop=1;jettySize=auto;html=1;startArrow=none;startFill=0;endArrow=ERone;endFill=0;" edge="1" parent="1" source="hZ7H1HI3UuH6J-5RxqU9-403">
          <mxGeometry relative="1" as="geometry">
            <mxPoint x="585" y="1482" as="targetPoint" />
            <Array as="points">
              <mxPoint x="585" y="1482" />
            </Array>
          </mxGeometry>
        </mxCell>
        <mxCell id="hZ7H1HI3UuH6J-5RxqU9-403" value="Posts" style="text;html=1;strokeColor=none;fillColor=none;align=center;verticalAlign=middle;whiteSpace=wrap;rounded=0;" vertex="1" parent="1">
          <mxGeometry x="563" y="1420" width="40" height="20" as="geometry" />
        </mxCell>
        <mxCell id="hZ7H1HI3UuH6J-5RxqU9-405" style="edgeStyle=orthogonalEdgeStyle;rounded=1;orthogonalLoop=1;jettySize=auto;html=1;startArrow=none;startFill=0;endArrow=ERzeroToMany;endFill=1;entryX=0;entryY=0.5;entryDx=0;entryDy=0;" edge="1" parent="1" source="hZ7H1HI3UuH6J-5RxqU9-403" target="hZ7H1HI3UuH6J-5RxqU9-197">
          <mxGeometry relative="1" as="geometry">
            <Array as="points">
              <mxPoint x="583" y="1373" />
            </Array>
          </mxGeometry>
        </mxCell>
        <mxCell id="hZ7H1HI3UuH6J-5RxqU9-231" value="Discounts" style="swimlane;fontStyle=0;childLayout=stackLayout;horizontal=1;startSize=26;fillColor=none;horizontalStack=0;resizeParent=1;resizeParentMax=0;resizeLast=0;collapsible=1;marginBottom=0;" vertex="1" parent="1">
          <mxGeometry x="770" y="1460" width="140" height="104" as="geometry" />
        </mxCell>
        <mxCell id="hZ7H1HI3UuH6J-5RxqU9-232" value="- name: String" style="text;strokeColor=none;fillColor=none;align=left;verticalAlign=top;spacingLeft=4;spacingRight=4;overflow=hidden;rotatable=0;points=[[0,0.5],[1,0.5]];portConstraint=eastwest;" vertex="1" parent="hZ7H1HI3UuH6J-5RxqU9-231">
          <mxGeometry y="26" width="140" height="26" as="geometry" />
        </mxCell>
        <mxCell id="hZ7H1HI3UuH6J-5RxqU9-233" value="- value: String" style="text;strokeColor=none;fillColor=none;align=left;verticalAlign=top;spacingLeft=4;spacingRight=4;overflow=hidden;rotatable=0;points=[[0,0.5],[1,0.5]];portConstraint=eastwest;" vertex="1" parent="hZ7H1HI3UuH6J-5RxqU9-231">
          <mxGeometry y="52" width="140" height="26" as="geometry" />
        </mxCell>
        <mxCell id="hZ7H1HI3UuH6J-5RxqU9-234" value="- duration: TimeAndDate" style="text;strokeColor=none;fillColor=none;align=left;verticalAlign=top;spacingLeft=4;spacingRight=4;overflow=hidden;rotatable=0;points=[[0,0.5],[1,0.5]];portConstraint=eastwest;" vertex="1" parent="hZ7H1HI3UuH6J-5RxqU9-231">
          <mxGeometry y="78" width="140" height="26" as="geometry" />
        </mxCell>
        <mxCell id="hZ7H1HI3UuH6J-5RxqU9-418" style="edgeStyle=orthogonalEdgeStyle;rounded=1;orthogonalLoop=1;jettySize=auto;html=1;startArrow=none;startFill=0;endArrow=none;endFill=0;" edge="1" parent="1" source="hZ7H1HI3UuH6J-5RxqU9-417" target="hZ7H1HI3UuH6J-5RxqU9-250">
          <mxGeometry relative="1" as="geometry">
            <Array as="points">
              <mxPoint x="910" y="940" />
              <mxPoint x="910" y="940" />
            </Array>
          </mxGeometry>
        </mxCell>
        <mxCell id="hZ7H1HI3UuH6J-5RxqU9-430" style="edgeStyle=orthogonalEdgeStyle;rounded=1;orthogonalLoop=1;jettySize=auto;html=1;entryX=0;entryY=0.5;entryDx=0;entryDy=0;startArrow=none;startFill=0;endArrow=none;endFill=0;" edge="1" parent="1" source="hZ7H1HI3UuH6J-5RxqU9-417" target="hZ7H1HI3UuH6J-5RxqU9-427">
          <mxGeometry relative="1" as="geometry" />
        </mxCell>
        <mxCell id="hZ7H1HI3UuH6J-5RxqU9-417" value="Reviews" style="text;html=1;strokeColor=none;fillColor=none;align=center;verticalAlign=middle;whiteSpace=wrap;rounded=0;" vertex="1" parent="1">
          <mxGeometry x="900" y="917" width="40" height="20" as="geometry" />
        </mxCell>
        <mxCell id="hZ7H1HI3UuH6J-5RxqU9-425" style="edgeStyle=orthogonalEdgeStyle;rounded=1;orthogonalLoop=1;jettySize=auto;html=1;startArrow=none;startFill=0;endArrow=none;endFill=0;" edge="1" parent="1" source="hZ7H1HI3UuH6J-5RxqU9-422" target="hZ7H1HI3UuH6J-5RxqU9-250">
          <mxGeometry relative="1" as="geometry">
            <Array as="points">
              <mxPoint x="1050" y="1090" />
            </Array>
          </mxGeometry>
        </mxCell>
        <mxCell id="hZ7H1HI3UuH6J-5RxqU9-426" style="edgeStyle=orthogonalEdgeStyle;rounded=1;orthogonalLoop=1;jettySize=auto;html=1;startArrow=none;startFill=0;endArrow=none;endFill=0;" edge="1" parent="1" source="hZ7H1HI3UuH6J-5RxqU9-422" target="hZ7H1HI3UuH6J-5RxqU9-323">
          <mxGeometry relative="1" as="geometry">
            <mxPoint x="1050" y="916" as="targetPoint" />
            <Array as="points">
              <mxPoint x="1050" y="910" />
              <mxPoint x="1050" y="910" />
            </Array>
          </mxGeometry>
        </mxCell>
        <mxCell id="hZ7H1HI3UuH6J-5RxqU9-422" value="Is reviewed" style="text;html=1;strokeColor=none;fillColor=none;align=center;verticalAlign=middle;whiteSpace=wrap;rounded=0;" vertex="1" parent="1">
          <mxGeometry x="1000" y="976" width="100" height="20" as="geometry" />
        </mxCell>
        <mxCell id="hZ7H1HI3UuH6J-5RxqU9-278" value="Car" style="swimlane;fontStyle=1;align=center;verticalAlign=top;childLayout=stackLayout;horizontal=1;startSize=26;horizontalStack=0;resizeParent=1;resizeParentMax=0;resizeLast=0;collapsible=1;marginBottom=0;" vertex="1" parent="1">
          <mxGeometry x="940" y="1570" width="260" height="346" as="geometry" />
        </mxCell>
        <mxCell id="hZ7H1HI3UuH6J-5RxqU9-279" value="- manufacturer: Manufacturers" style="text;strokeColor=none;fillColor=none;align=left;verticalAlign=top;spacingLeft=4;spacingRight=4;overflow=hidden;rotatable=0;points=[[0,0.5],[1,0.5]];portConstraint=eastwest;" vertex="1" parent="hZ7H1HI3UuH6J-5RxqU9-278">
          <mxGeometry y="26" width="260" height="26" as="geometry" />
        </mxCell>
        <mxCell id="hZ7H1HI3UuH6J-5RxqU9-289" value="- model: String" style="text;strokeColor=none;fillColor=none;align=left;verticalAlign=top;spacingLeft=4;spacingRight=4;overflow=hidden;rotatable=0;points=[[0,0.5],[1,0.5]];portConstraint=eastwest;" vertex="1" parent="hZ7H1HI3UuH6J-5RxqU9-278">
          <mxGeometry y="52" width="260" height="26" as="geometry" />
        </mxCell>
        <mxCell id="hZ7H1HI3UuH6J-5RxqU9-290" value="- fuel: FuelTypes" style="text;strokeColor=none;fillColor=none;align=left;verticalAlign=top;spacingLeft=4;spacingRight=4;overflow=hidden;rotatable=0;points=[[0,0.5],[1,0.5]];portConstraint=eastwest;" vertex="1" parent="hZ7H1HI3UuH6J-5RxqU9-278">
          <mxGeometry y="78" width="260" height="26" as="geometry" />
        </mxCell>
        <mxCell id="hZ7H1HI3UuH6J-5RxqU9-292" value="- transmissions: Array&lt;Transmission&gt;" style="text;strokeColor=none;fillColor=none;align=left;verticalAlign=top;spacingLeft=4;spacingRight=4;overflow=hidden;rotatable=0;points=[[0,0.5],[1,0.5]];portConstraint=eastwest;" vertex="1" parent="hZ7H1HI3UuH6J-5RxqU9-278">
          <mxGeometry y="104" width="260" height="26" as="geometry" />
        </mxCell>
        <mxCell id="hZ7H1HI3UuH6J-5RxqU9-293" value="- type: CarType" style="text;strokeColor=none;fillColor=none;align=left;verticalAlign=top;spacingLeft=4;spacingRight=4;overflow=hidden;rotatable=0;points=[[0,0.5],[1,0.5]];portConstraint=eastwest;" vertex="1" parent="hZ7H1HI3UuH6J-5RxqU9-278">
          <mxGeometry y="130" width="260" height="26" as="geometry" />
        </mxCell>
        <mxCell id="hZ7H1HI3UuH6J-5RxqU9-294" value="- price: double" style="text;strokeColor=none;fillColor=none;align=left;verticalAlign=top;spacingLeft=4;spacingRight=4;overflow=hidden;rotatable=0;points=[[0,0.5],[1,0.5]];portConstraint=eastwest;" vertex="1" parent="hZ7H1HI3UuH6J-5RxqU9-278">
          <mxGeometry y="156" width="260" height="26" as="geometry" />
        </mxCell>
        <mxCell id="hZ7H1HI3UuH6J-5RxqU9-295" value="- maxMilage: float" style="text;strokeColor=none;fillColor=none;align=left;verticalAlign=top;spacingLeft=4;spacingRight=4;overflow=hidden;rotatable=0;points=[[0,0.5],[1,0.5]];portConstraint=eastwest;" vertex="1" parent="hZ7H1HI3UuH6J-5RxqU9-278">
          <mxGeometry y="182" width="260" height="26" as="geometry" />
        </mxCell>
        <mxCell id="hZ7H1HI3UuH6J-5RxqU9-296" value="- isMilageLimited: boolean" style="text;strokeColor=none;fillColor=none;align=left;verticalAlign=top;spacingLeft=4;spacingRight=4;overflow=hidden;rotatable=0;points=[[0,0.5],[1,0.5]];portConstraint=eastwest;" vertex="1" parent="hZ7H1HI3UuH6J-5RxqU9-278">
          <mxGeometry y="208" width="260" height="26" as="geometry" />
        </mxCell>
        <mxCell id="hZ7H1HI3UuH6J-5RxqU9-297" value="- ownedCDWProtection: CDWProtection" style="text;strokeColor=none;fillColor=none;align=left;verticalAlign=top;spacingLeft=4;spacingRight=4;overflow=hidden;rotatable=0;points=[[0,0.5],[1,0.5]];portConstraint=eastwest;" vertex="1" parent="hZ7H1HI3UuH6J-5RxqU9-278">
          <mxGeometry y="234" width="260" height="26" as="geometry" />
        </mxCell>
        <mxCell id="hZ7H1HI3UuH6J-5RxqU9-298" value="- numbersOfChildSeats: int" style="text;strokeColor=none;fillColor=none;align=left;verticalAlign=top;spacingLeft=4;spacingRight=4;overflow=hidden;rotatable=0;points=[[0,0.5],[1,0.5]];portConstraint=eastwest;" vertex="1" parent="hZ7H1HI3UuH6J-5RxqU9-278">
          <mxGeometry y="260" width="260" height="26" as="geometry" />
        </mxCell>
        <mxCell id="hZ7H1HI3UuH6J-5RxqU9-280" value="" style="line;strokeWidth=1;fillColor=none;align=left;verticalAlign=middle;spacingTop=-1;spacingLeft=3;spacingRight=3;rotatable=0;labelPosition=right;points=[];portConstraint=eastwest;" vertex="1" parent="hZ7H1HI3UuH6J-5RxqU9-278">
          <mxGeometry y="286" width="260" height="8" as="geometry" />
        </mxCell>
        <mxCell id="hZ7H1HI3UuH6J-5RxqU9-281" value="+ containsChildSeats() : boolean" style="text;strokeColor=none;fillColor=none;align=left;verticalAlign=top;spacingLeft=4;spacingRight=4;overflow=hidden;rotatable=0;points=[[0,0.5],[1,0.5]];portConstraint=eastwest;" vertex="1" parent="hZ7H1HI3UuH6J-5RxqU9-278">
          <mxGeometry y="294" width="260" height="26" as="geometry" />
        </mxCell>
        <mxCell id="hZ7H1HI3UuH6J-5RxqU9-299" value="+ ownesCDWProtection(): boolean" style="text;strokeColor=none;fillColor=none;align=left;verticalAlign=top;spacingLeft=4;spacingRight=4;overflow=hidden;rotatable=0;points=[[0,0.5],[1,0.5]];portConstraint=eastwest;" vertex="1" parent="hZ7H1HI3UuH6J-5RxqU9-278">
          <mxGeometry y="320" width="260" height="26" as="geometry" />
        </mxCell>
        <mxCell id="hZ7H1HI3UuH6J-5RxqU9-178" value="Statistic" style="swimlane;fontStyle=1;align=center;verticalAlign=top;childLayout=stackLayout;horizontal=1;startSize=26;horizontalStack=0;resizeParent=1;resizeParentMax=0;resizeLast=0;collapsible=1;marginBottom=0;" vertex="1" parent="1">
          <mxGeometry x="632" y="1710" width="238" height="112" as="geometry" />
        </mxCell>
        <mxCell id="hZ7H1HI3UuH6J-5RxqU9-180" value="" style="line;strokeWidth=1;fillColor=none;align=left;verticalAlign=middle;spacingTop=-1;spacingLeft=3;spacingRight=3;rotatable=0;labelPosition=right;points=[];portConstraint=eastwest;" vertex="1" parent="hZ7H1HI3UuH6J-5RxqU9-178">
          <mxGeometry y="26" width="238" height="8" as="geometry" />
        </mxCell>
        <mxCell id="hZ7H1HI3UuH6J-5RxqU9-181" value="+ getCarWithMostComments(): Car" style="text;strokeColor=none;fillColor=none;align=left;verticalAlign=top;spacingLeft=4;spacingRight=4;overflow=hidden;rotatable=0;points=[[0,0.5],[1,0.5]];portConstraint=eastwest;" vertex="1" parent="hZ7H1HI3UuH6J-5RxqU9-178">
          <mxGeometry y="34" width="238" height="26" as="geometry" />
        </mxCell>
        <mxCell id="hZ7H1HI3UuH6J-5RxqU9-182" value="+ getCarWithMostMilage(): Car" style="text;strokeColor=none;fillColor=none;align=left;verticalAlign=top;spacingLeft=4;spacingRight=4;overflow=hidden;rotatable=0;points=[[0,0.5],[1,0.5]];portConstraint=eastwest;" vertex="1" parent="hZ7H1HI3UuH6J-5RxqU9-178">
          <mxGeometry y="60" width="238" height="26" as="geometry" />
        </mxCell>
        <mxCell id="hZ7H1HI3UuH6J-5RxqU9-183" value="+ getCarWithMostRates(): Car" style="text;strokeColor=none;fillColor=none;align=left;verticalAlign=top;spacingLeft=4;spacingRight=4;overflow=hidden;rotatable=0;points=[[0,0.5],[1,0.5]];portConstraint=eastwest;" vertex="1" parent="hZ7H1HI3UuH6J-5RxqU9-178">
          <mxGeometry y="86" width="238" height="26" as="geometry" />
        </mxCell>
        <mxCell id="hZ7H1HI3UuH6J-5RxqU9-434" value="TimeAndDate" style="swimlane;fontStyle=1;align=center;verticalAlign=top;childLayout=stackLayout;horizontal=1;startSize=26;horizontalStack=0;resizeParent=1;resizeParentMax=0;resizeLast=0;collapsible=1;marginBottom=0;" vertex="1" parent="1">
          <mxGeometry x="640" y="1860" width="160" height="112" as="geometry" />
        </mxCell>
        <mxCell id="hZ7H1HI3UuH6J-5RxqU9-436" value="" style="line;strokeWidth=1;fillColor=none;align=left;verticalAlign=middle;spacingTop=-1;spacingLeft=3;spacingRight=3;rotatable=0;labelPosition=right;points=[];portConstraint=eastwest;" vertex="1" parent="hZ7H1HI3UuH6J-5RxqU9-434">
          <mxGeometry y="26" width="160" height="8" as="geometry" />
        </mxCell>
        <mxCell id="hZ7H1HI3UuH6J-5RxqU9-437" value="+ getCurrentDate()" style="text;strokeColor=none;fillColor=none;align=left;verticalAlign=top;spacingLeft=4;spacingRight=4;overflow=hidden;rotatable=0;points=[[0,0.5],[1,0.5]];portConstraint=eastwest;" vertex="1" parent="hZ7H1HI3UuH6J-5RxqU9-434">
          <mxGeometry y="34" width="160" height="26" as="geometry" />
        </mxCell>
        <mxCell id="hZ7H1HI3UuH6J-5RxqU9-438" value="+ getOneDayAfter( date)" style="text;strokeColor=none;fillColor=none;align=left;verticalAlign=top;spacingLeft=4;spacingRight=4;overflow=hidden;rotatable=0;points=[[0,0.5],[1,0.5]];portConstraint=eastwest;" vertex="1" parent="hZ7H1HI3UuH6J-5RxqU9-434">
          <mxGeometry y="60" width="160" height="26" as="geometry" />
        </mxCell>
        <mxCell id="hZ7H1HI3UuH6J-5RxqU9-440" value="+ get12hAfter( date )" style="text;strokeColor=none;fillColor=none;align=left;verticalAlign=top;spacingLeft=4;spacingRight=4;overflow=hidden;rotatable=0;points=[[0,0.5],[1,0.5]];portConstraint=eastwest;" vertex="1" parent="hZ7H1HI3UuH6J-5RxqU9-434">
          <mxGeometry y="86" width="160" height="26" as="geometry" />
        </mxCell>
      </root>
    </mxGraphModel>
  </diagram>
</mxfile>
